<svg width="22" height="22" viewBox="0 0 22 22" fill="none" xmlns="http://www.w3.org/2000/svg">
<path fill-rule="evenodd" clip-rule="evenodd" d="M3.82433 2.90734C2.75 3.98076 2.75 5.70959 2.75 9.16634V12.833C2.75 16.2898 2.75 18.0186 3.82433 19.092C4.89775 20.1663 6.62658 20.1663 10.0833 20.1663H11.9167C15.3734 20.1663 17.1022 20.1663 18.1757 19.092C19.25 18.0186 19.25 16.2898 19.25 12.833V9.16634C19.25 5.70959 19.25 3.98076 18.1757 2.90734C17.1022 1.83301 15.3734 1.83301 11.9167 1.83301H10.0833C6.62658 1.83301 4.89775 1.83301 3.82433 2.90734ZM7.33333 8.47884C7.151 8.47884 6.97613 8.55127 6.8472 8.68021C6.71827 8.80914 6.64583 8.984 6.64583 9.16634C6.64583 9.34868 6.71827 9.52355 6.8472 9.65248C6.97613 9.78141 7.151 9.85384 7.33333 9.85384H14.6667C14.849 9.85384 15.0239 9.78141 15.1528 9.65248C15.2817 9.52355 15.3542 9.34868 15.3542 9.16634C15.3542 8.984 15.2817 8.80914 15.1528 8.68021C15.0239 8.55127 14.849 8.47884 14.6667 8.47884H7.33333ZM7.33333 12.1455C7.151 12.1455 6.97613 12.2179 6.8472 12.3469C6.71827 12.4758 6.64583 12.6507 6.64583 12.833C6.64583 13.0153 6.71827 13.1902 6.8472 13.3191C6.97613 13.4481 7.151 13.5205 7.33333 13.5205H11.9167C12.099 13.5205 12.2739 13.4481 12.4028 13.3191C12.5317 13.1902 12.6042 13.0153 12.6042 12.833C12.6042 12.6507 12.5317 12.4758 12.4028 12.3469C12.2739 12.2179 12.099 12.1455 11.9167 12.1455H7.33333Z" fill="#747E8F"/>
</svg>
