<?xml version="1.0" encoding="utf-8"?>
<!-- Generator: Adobe Illustrator 27.5.0, SVG Export Plug-In . SVG Version: 6.00 Build 0)  -->
<svg version="1.1" xmlns="http://www.w3.org/2000/svg" xmlns:xlink="http://www.w3.org/1999/xlink" x="0px" y="0px"
	 viewBox="0 0 750 500" style="enable-background:new 0 0 750 500;" xml:space="preserve">
<g id="BACKGROUND">
	<g>
		<rect y="0" style="fill:#FFFFFF;" width="750" height="500"/>
		<g>
			<linearGradient id="SVGID_1_" gradientUnits="userSpaceOnUse" x1="62.1467" y1="261.9927" x2="588.3538" y2="261.9927">
				<stop  offset="0" style="stop-color:#8AB9FD"/>
				<stop  offset="1" style="stop-color:#0056E9"/>
			</linearGradient>
			<path style="opacity:0.1;fill:url(#SVGID_1_);" d="M111.193,387.701c-80.053-62.046-50.145-174.632,4.713-202.377
				c42.812-21.653,66.189-24.475,88.513-35.186c63.37-26.069,99.742-72.51,169.965-64.922
				c116.734,12.613,79.537,99.454,156.193,160.309c21.201,17.957,81.158,55.782,47.966,133.819
				c-34.009,79.959-160.575,65.38-234.697,40.86C225.66,377.227,216.255,469.13,111.193,387.701z"/>
			
				<linearGradient id="SVGID_00000005953963046300849940000016023330493524679306_" gradientUnits="userSpaceOnUse" x1="487.39" y1="178.7347" x2="585.3046" y2="178.7347">
				<stop  offset="0" style="stop-color:#8AB9FD"/>
				<stop  offset="1" style="stop-color:#0056E9"/>
			</linearGradient>
			<path style="opacity:0.1;fill:url(#SVGID_00000005953963046300849940000016023330493524679306_);" d="M507.114,204.759
				c21.462,30,57.95,40.536,74.651,14.207c19.011-39.529-43.17-105.097-76.751-94.294
				C472.269,135.207,492.477,184.299,507.114,204.759z"/>
		</g>
	</g>
</g>
<g id="OBJECTS">
	<g>
		
			<linearGradient id="SVGID_00000032630156038897771590000011612262593407870619_" gradientUnits="userSpaceOnUse" x1="119.3881" y1="527.4048" x2="119.3881" y2="420.3781">
			<stop  offset="0" style="stop-color:#53B0B1"/>
			<stop  offset="1" style="stop-color:#6ACAD8"/>
		</linearGradient>
		<path style="fill:url(#SVGID_00000032630156038897771590000011612262593407870619_);" d="M104.526,455.357
			c0,0,10.036-7.64,24.806-7.83c0,0-41.47-4.545-40.902-12.876c0.568-8.332,26.321-4.354,42.795,6.818
			c0,0-18.746-13.888-15.332-20.111c3.349-6.104,29.912,6.905,34.457,34.147L104.526,455.357z"/>
		
			<linearGradient id="SVGID_00000049931592860579025830000006790632351836134796_" gradientUnits="userSpaceOnUse" x1="592.9138" y1="634.3285" x2="592.9138" y2="368.3349">
			<stop  offset="0" style="stop-color:#53B0B1"/>
			<stop  offset="1" style="stop-color:#6ACAD8"/>
		</linearGradient>
		<path style="fill:url(#SVGID_00000049931592860579025830000006790632351836134796_);" d="M550.715,439.596
			c0,0,31.915-72.188,48.766-72.508c22.926-0.434-31.659,63.516-31.659,63.516s41.56-50.362,57.064-40.026
			c14.936,9.957-40.468,41.301-40.468,41.301s44.439-21.617,50.307-8.556c4.34,9.66-28.733,13.979-49.03,16.274
			c0,0,43.675-4.478,40.799,6.053c-1.608,5.886-34.735,3.61-34.735,3.61s20.298,1.702,22.404,6.378h-63.447V439.596z"/>
	</g>
	<g>
		<g>
			<g>
				
					<linearGradient id="SVGID_00000074443472474810067080000005084573639985563777_" gradientUnits="userSpaceOnUse" x1="216.5272" y1="281.046" x2="216.5272" y2="309.7694">
					<stop  offset="0" style="stop-color:#875FA7"/>
					<stop  offset="1" style="stop-color:#582792"/>
				</linearGradient>
				<path style="fill:url(#SVGID_00000074443472474810067080000005084573639985563777_);" d="M274.765,295.456
					c0-8.733-3.351-15.814-7.497-15.89c-0.001-0.001-0.005-0.007-0.005-0.007s-0.024,0.002-0.033,0.003
					c-0.01,0-0.019-0.003-0.028-0.003c-0.103,0-0.203,0.024-0.305,0.032c-3.312,0.289-28.956,2.221-50.389,2.221
					c-30.515,0-54.643-2.253-54.643-2.253c-8.042,17.853,0,31.795,0,31.795h105.398c0.001-0.002,0.002-0.005,0.004-0.007
					C271.413,311.272,274.765,304.19,274.765,295.456z"/>
				<ellipse cx="162.02" cy="295.456" rx="7.564" ry="15.898"/>
				<path style="fill:none;stroke:#FFFFFF;stroke-width:0.25;stroke-linecap:round;stroke-miterlimit:10;" d="M164.226,282.546
					c-3.83-2.011-7.755,2.594-7.755,12.679c0,10.085,2.745,13.842,5.011,13.842c6.702,0,7.588-23.054,1.269-23.628
					c-6.319-0.574-5.545,19.033-1.205,19.033c3.926,0,4.064-16.804,0.475-15.351c-2.286,0.926-2.572,10.408-0.344,10.554
					c0.635,0.041,1.48-1.562,1.416-4.099"/>
				
					<linearGradient id="SVGID_00000070095218235665004100000006842471383352664973_" gradientUnits="userSpaceOnUse" x1="192.0875" y1="281.9396" x2="192.0875" y2="305.8338">
					<stop  offset="0" style="stop-color:#E4816F"/>
					<stop  offset="1" style="stop-color:#E25E52"/>
				</linearGradient>
				<path style="fill:url(#SVGID_00000070095218235665004100000006842471383352664973_);" d="M194.345,311.353
					c0,0,2.36-4.315,2.36-15.454c0-11.139-4.227-14.997-4.227-14.997h-5.007c0,0,4.51,3.857,4.51,14.997
					c0,11.139-2.643,15.454-2.643,15.454H194.345z"/>
				
					<linearGradient id="SVGID_00000026861088186124611820000012563037143339047842_" gradientUnits="userSpaceOnUse" x1="238.3003" y1="281.9396" x2="238.3003" y2="305.8338">
					<stop  offset="0" style="stop-color:#E4816F"/>
					<stop  offset="1" style="stop-color:#E25E52"/>
				</linearGradient>
				<path style="fill:url(#SVGID_00000026861088186124611820000012563037143339047842_);" d="M240.557,311.353
					c0,0,2.36-4.315,2.36-15.454c0-11.139-4.227-14.997-4.227-14.997h-5.007c0,0,4.51,3.857,4.51,14.997
					c0,11.139-2.643,15.454-2.643,15.454H240.557z"/>
			</g>
			<g>
				<g>
					
						<linearGradient id="SVGID_00000044862576675404641040000001921745952372150917_" gradientUnits="userSpaceOnUse" x1="200.2099" y1="441.1996" x2="200.2099" y2="298.5078">
						<stop  offset="0" style="stop-color:#E6832C"/>
						<stop  offset="1" style="stop-color:#E9A347"/>
					</linearGradient>
					<path style="fill:url(#SVGID_00000044862576675404641040000001921745952372150917_);" d="M237.389,441.386h-74.358
						c-3.921,0-7.1-3.179-7.1-7.1V318.453c0-3.921,3.179-7.1,7.1-7.1h74.358c3.921,0,7.099,3.178,7.099,7.1v115.834
						C244.488,438.208,241.31,441.386,237.389,441.386z"/>
					
						<linearGradient id="SVGID_00000076600848728990563940000003811152560685054889_" gradientUnits="userSpaceOnUse" x1="200.2099" y1="441.1996" x2="200.2099" y2="298.5078">
						<stop  offset="0" style="stop-color:#E6832C"/>
						<stop  offset="1" style="stop-color:#E9A347"/>
					</linearGradient>
					<path style="opacity:0.5;fill:url(#SVGID_00000076600848728990563940000003811152560685054889_);" d="M237.389,441.386h-74.358
						c-3.921,0-7.1-3.179-7.1-7.1V318.453c0-3.921,3.179-7.1,7.1-7.1h74.358c3.921,0,7.099,3.178,7.099,7.1v115.834
						C244.488,438.208,241.31,441.386,237.389,441.386z"/>
					<path style="fill:none;stroke:#000000;stroke-width:0.5;stroke-linecap:round;stroke-miterlimit:10;" d="M175.623,441.386
						c-3.921,0-7.1-3.179-7.1-7.1V318.453c0-3.921,3.179-7.1,7.1-7.1"/>
					
						<linearGradient id="SVGID_00000048476848842860716370000017450000794720760212_" gradientUnits="userSpaceOnUse" x1="224.6845" y1="473.988" x2="224.6845" y2="381.7671">
						<stop  offset="0" style="stop-color:#E6832C"/>
						<stop  offset="1" style="stop-color:#E9A347"/>
					</linearGradient>
					<path style="fill:url(#SVGID_00000048476848842860716370000017450000794720760212_);" d="M261.863,441.386h-74.358
						c-3.921,0-7.1-3.179-7.1-7.1V318.453c0-3.921,3.179-7.1,7.1-7.1h74.358c3.921,0,7.099,3.178,7.099,7.1v115.834
						C268.963,438.208,265.784,441.386,261.863,441.386z"/>
				</g>
				<g>
					<path d="M168.523,444.137c-0.279,0-0.55,0.027-0.818,0.066v-2.817h-4.829v8.397c0,3.118,2.528,5.646,5.646,5.646
						s5.646-2.528,5.646-5.646S171.642,444.137,168.523,444.137z"/>
					<path d="M196.402,444.137c-0.278,0-0.55,0.027-0.818,0.066v-2.817h-4.829v8.397c0,3.118,2.528,5.646,5.646,5.646
						c3.118,0,5.647-2.528,5.647-5.646S199.521,444.137,196.402,444.137z"/>
					<path d="M234.254,444.137c-0.279,0-0.55,0.027-0.818,0.066v-2.817h-4.829v8.397c0,3.118,2.528,5.646,5.646,5.646
						s5.646-2.528,5.646-5.646S237.372,444.137,234.254,444.137z"/>
					<path d="M262.133,444.137c-0.279,0-0.55,0.027-0.818,0.066v-2.817h-4.829v8.397c0,3.118,2.528,5.646,5.646,5.646
						c3.118,0,5.647-2.528,5.647-5.646S265.251,444.137,262.133,444.137z"/>
				</g>
				<g>
					<path style="fill:none;stroke:#000000;stroke-width:0.5;stroke-linecap:round;stroke-miterlimit:10;" d="M194.885,430.025
						h-6.202c-1.244,0-2.253-1.009-2.253-2.253V326.959c0-1.244,1.009-2.253,2.253-2.253h6.202c1.244,0,2.253,1.009,2.253,2.253
						v100.813C197.138,429.016,196.13,430.025,194.885,430.025z"/>
					<path style="fill:none;stroke:#000000;stroke-width:0.5;stroke-linecap:round;stroke-miterlimit:10;" d="M216.819,430.025
						h-6.202c-1.244,0-2.253-1.009-2.253-2.253V326.959c0-1.244,1.009-2.253,2.253-2.253h6.202c1.244,0,2.253,1.009,2.253,2.253
						v100.813C219.072,429.016,218.063,430.025,216.819,430.025z"/>
					<path style="fill:none;stroke:#000000;stroke-width:0.5;stroke-linecap:round;stroke-miterlimit:10;" d="M238.752,430.025
						h-6.202c-1.244,0-2.253-1.009-2.253-2.253V326.959c0-1.244,1.009-2.253,2.253-2.253h6.202c1.244,0,2.253,1.009,2.253,2.253
						v100.813C241.005,429.016,239.996,430.025,238.752,430.025z"/>
					<path style="fill:none;stroke:#000000;stroke-width:0.5;stroke-linecap:round;stroke-miterlimit:10;" d="M260.685,430.025
						h-6.202c-1.244,0-2.253-1.009-2.253-2.253V326.959c0-1.244,1.009-2.253,2.253-2.253h6.202c1.244,0,2.253,1.009,2.253,2.253
						v100.813C262.939,429.016,261.93,430.025,260.685,430.025z"/>
				</g>
				<g>
					<rect x="201.594" y="243.003" width="2.808" height="73.468"/>
					<rect x="244.966" y="243.003" width="2.809" height="73.468"/>
				</g>
				
					<linearGradient id="SVGID_00000023974442070208534710000014258026487412675245_" gradientUnits="userSpaceOnUse" x1="200.4983" y1="240.7321" x2="248.8707" y2="240.7321">
					<stop  offset="0" style="stop-color:#E6832C"/>
					<stop  offset="1" style="stop-color:#E9A347"/>
				</linearGradient>
				
					<polyline style="fill:none;stroke:url(#SVGID_00000023974442070208534710000014258026487412675245_);stroke-width:5;stroke-linejoin:round;stroke-miterlimit:10;" points="
					202.998,246.195 202.998,237.769 246.371,237.769 246.371,246.195 				"/>
			</g>
		</g>
		<g>
			<path d="M547.59,455.637H414.037c-4.312,0-7.808-3.496-7.808-7.808v-97.655c0-4.312,3.496-7.808,7.808-7.808H547.59
				c4.312,0,7.808,3.496,7.808,7.808v97.655C555.399,452.141,551.903,455.637,547.59,455.637z"/>
			<path style="fill:none;stroke:#FFFFFF;stroke-width:0.5;stroke-linecap:round;stroke-miterlimit:10;" d="M425.292,455.637
				c-4.312,0-7.808-3.496-7.808-7.808v-97.655c0-4.312,3.496-7.808,7.808-7.808"/>
			
				<linearGradient id="SVGID_00000143581729886518840250000017475891017336975505_" gradientUnits="userSpaceOnUse" x1="505.4728" y1="343.1682" x2="505.4728" y2="445.5934">
				<stop  offset="0" style="stop-color:#E4816F"/>
				<stop  offset="1" style="stop-color:#E25E52"/>
			</linearGradient>
			<path style="fill:url(#SVGID_00000143581729886518840250000017475891017336975505_);" d="M572.25,455.637H438.696
				c-4.312,0-7.808-3.496-7.808-7.808v-97.655c0-4.312,3.496-7.808,7.808-7.808H572.25c4.312,0,7.808,3.496,7.808,7.808v97.655
				C580.058,452.141,576.562,455.637,572.25,455.637z"/>
			
				<linearGradient id="SVGID_00000099645935593189389620000007977037652801951418_" gradientUnits="userSpaceOnUse" x1="505.4728" y1="343.1682" x2="505.4728" y2="445.5934">
				<stop  offset="0" style="stop-color:#8AB9FD"/>
				<stop  offset="1" style="stop-color:#0056E9"/>
			</linearGradient>
			<path style="fill:url(#SVGID_00000099645935593189389620000007977037652801951418_);" d="M572.25,455.637H438.696
				c-4.312,0-7.808-3.496-7.808-7.808v-97.655c0-4.312,3.496-7.808,7.808-7.808H572.25c4.312,0,7.808,3.496,7.808,7.808v97.655
				C580.058,452.141,576.562,455.637,572.25,455.637z"/>
			<g>
				
					<path style="fill:none;stroke:#000000;stroke-width:0.75;stroke-linecap:round;stroke-linejoin:round;stroke-dasharray:5.0003,5.0003;" d="
					M438.696,450.638c-1.548,0-2.808-1.26-2.808-2.809v-97.655c0-1.549,1.26-2.809,2.808-2.809h133.554
					c1.549,0,2.809,1.26,2.809,2.809v97.655c0,1.549-1.26,2.809-2.809,2.809H438.696L438.696,450.638z"/>
			</g>
			<path style="fill:#FFFFFF;" d="M424.155,350.38l-1.603-0.457c-0.806-0.23-1.219-1.123-0.873-1.886l2.324-5.114
				c0.281-0.618,0.971-0.938,1.624-0.751l0,0c0.653,0.186,1.071,0.822,0.984,1.495l-0.721,5.571
				C425.783,350.069,424.961,350.61,424.155,350.38z"/>
			<g>
				<path style="fill:#FFFFFF;" d="M556.283,416.655l-31.473,13.156l-0.649-1.553c0.794-0.332,1.169-1.245,0.837-2.039
					c-0.332-0.794-1.245-1.169-2.039-0.837l-0.707-1.691c0.794-0.332,1.169-1.245,0.837-2.039c-0.332-0.794-1.24-1.157-2.034-0.825
					l-0.707-1.691c0.794-0.332,1.169-1.245,0.837-2.039c-0.332-0.794-1.245-1.169-2.039-0.837l-0.707-1.691
					c0.794-0.332,1.169-1.245,0.837-2.039c-0.332-0.794-1.245-1.169-2.039-0.837l-0.649-1.553l31.473-13.156l0.649,1.553
					c-0.794,0.332-1.169,1.245-0.837,2.039c0.332,0.794,1.245,1.169,2.039,0.837l0.707,1.691c-0.794,0.332-1.169,1.245-0.837,2.039
					c0.332,0.794,1.245,1.169,2.039,0.837l0.707,1.691c-0.794,0.332-1.174,1.234-0.842,2.027c0.332,0.794,1.245,1.169,2.039,0.837
					l0.707,1.691c-0.794,0.332-1.169,1.245-0.837,2.039c0.332,0.794,1.245,1.169,2.039,0.837L556.283,416.655z"/>
				
					<rect x="527.602" y="399.49" transform="matrix(0.3857 0.9226 -0.9226 0.3857 710.9646 -240.9722)" style="fill:none;stroke:#000000;stroke-width:0.25;stroke-linecap:round;stroke-linejoin:round;stroke-miterlimit:10;" width="17.667" height="27.814"/>
			</g>
			<polygon style="opacity:0.5;fill:#FFFFFF;" points="479.864,385.235 477.001,387.484 479.034,390.504 475.614,391.754 
				476.609,395.256 472.97,395.387 472.839,399.026 469.337,398.031 468.088,401.45 465.067,399.417 462.819,402.28 
				460.571,399.417 457.55,401.45 456.301,398.03 452.798,399.025 452.667,395.387 449.029,395.255 450.024,391.753 
				446.604,390.504 448.637,387.484 445.774,385.235 448.637,382.987 446.605,379.966 450.024,378.717 449.03,375.215 
				452.668,375.083 452.799,371.445 456.301,372.44 457.55,369.021 460.571,371.053 462.819,368.19 465.067,371.053 
				468.088,369.021 469.338,372.44 472.84,371.446 472.971,375.084 476.609,375.216 475.615,378.717 479.034,379.967 
				477.001,382.987 			"/>
			
				<linearGradient id="SVGID_00000166657573234227658070000002573933278841276057_" gradientUnits="userSpaceOnUse" x1="537.7522" y1="381.426" x2="519.369" y2="371.8513" gradientTransform="matrix(1.0097 -0.0561 -0.0561 1.3241 15.5857 -91.4353)">
				<stop  offset="0" style="stop-color:#E6832C"/>
				<stop  offset="1" style="stop-color:#E9A347"/>
			</linearGradient>
			<polygon style="fill:url(#SVGID_00000166657573234227658070000002573933278841276057_);" points="536.02,381.974 515.17,378.366 
				516.477,370.816 537.327,374.424 			"/>
		</g>
	</g>
	<g>
		<g>
			<path d="M255.855,194.297c0,0-6.211,0.574-7.707-4.592c0,0,3.513-0.891,6.481,1.964c0,0-1.63-2.634-1.247-4.676
				c0,0,3.227,1.105,3.572,5.614L255.855,194.297z"/>
			
				<linearGradient id="SVGID_00000098908577573350449930000004192085575975149191_" gradientUnits="userSpaceOnUse" x1="348.1393" y1="289.0563" x2="348.3947" y2="244.7584">
				<stop  offset="0" style="stop-color:#E6832C"/>
				<stop  offset="1" style="stop-color:#E9A347"/>
			</linearGradient>
			<path style="fill:url(#SVGID_00000098908577573350449930000004192085575975149191_);" d="M334.178,237.769
				c0,0,17.374,5.17,20.246,7.085c2.872,1.915,8.617,28.245,7.979,35.713c-0.636,7.443-21.191,14.074-21.191,14.074L334.178,237.769
				z"/>
			
				<linearGradient id="SVGID_00000111178910786796644310000014153592046165421231_" gradientUnits="userSpaceOnUse" x1="345.225" y1="134.3393" x2="345.225" y2="208.7267">
				<stop  offset="0" style="stop-color:#FFCBCA"/>
				<stop  offset="1" style="stop-color:#E994A8"/>
			</linearGradient>
			<path style="fill:url(#SVGID_00000111178910786796644310000014153592046165421231_);" d="M361.928,144.638l2.901-11.295
				c0,0-16.372,2.043-18.766,1.564c-2.394-0.479-4.068-0.536-5.378-0.303c-1.309,0.233-2.936,1.627-1.819,2.753
				c1.116,1.126,7.508,2.178,7.923,2.753c0.415,0.574,3.112,5.098,3.112,5.098l-2.453,34.235l-19.149-10.556l-3.398,23.658
				c0,0,30.674,14.107,37.567,7.692C369.706,193.501,361.928,144.638,361.928,144.638z"/>
			<g>
				
					<linearGradient id="SVGID_00000033331239904522827550000016017956079486972323_" gradientUnits="userSpaceOnUse" x1="325.2202" y1="378.6171" x2="320.05" y2="420.3618">
					<stop  offset="0" style="stop-color:#FFCBCA"/>
					<stop  offset="1" style="stop-color:#E994A8"/>
				</linearGradient>
				<polygon style="fill:url(#SVGID_00000033331239904522827550000016017956079486972323_);" points="308.658,399.838 
					310.422,434.237 332.422,432.965 336.137,399.838 				"/>
				
					<linearGradient id="SVGID_00000005949506952036435260000004160067814324431524_" gradientUnits="userSpaceOnUse" x1="334.4559" y1="390.8708" x2="334.4559" y2="452.796">
					<stop  offset="0" style="stop-color:#8AB9FD"/>
					<stop  offset="1" style="stop-color:#0056E9"/>
				</linearGradient>
				<path style="fill:url(#SVGID_00000005949506952036435260000004160067814324431524_);" d="M308.658,428.173
					c0,0,13.638-8.722,31.468-8.17l-6.862,17.872c0,0,10.628-2.681,19.628-3.064c13.978-0.595,9,20.694,9,20.694h-55.532
					c0,0-1.34-6.616,2.872-14.853C309.233,436.634,308.658,430.375,308.658,428.173z"/>
				<path d="M362.56,451.133c-0.25,2.56-0.67,4.37-0.67,4.37h-55.53c0,0-0.47-2.31,0.02-5.91c2.83,0.17,11.07,0.83,14.92,3.12
					L362.56,451.133z"/>
				<path style="fill:none;stroke:#000000;stroke-width:0.5;stroke-linecap:round;stroke-linejoin:round;stroke-miterlimit:10;" d="
					M330.392,438.737c0,0-7.181-4.668-4.572-8.138c2.805-3.731,6.654,1.484,6.391,7.516c0,0,0.407-10.69,4.5-10.676
					c4.932,0.018-2.585,10.819-2.585,10.819s1.66-2.457,6.16-4.021c4.5-1.564,7.851,4.34,10.883,5.074"/>
			</g>
			<g>
				
					<linearGradient id="SVGID_00000156561783151257431060000014942403576799917967_" gradientUnits="userSpaceOnUse" x1="231.8337" y1="365.046" x2="231.8337" y2="411.0035">
					<stop  offset="0" style="stop-color:#FFCBCA"/>
					<stop  offset="1" style="stop-color:#E994A8"/>
				</linearGradient>
				<polygon style="fill:url(#SVGID_00000156561783151257431060000014942403576799917967_);" points="231.759,375.19 
					210.711,402.875 228.511,416.225 252.956,393.091 				"/>
				
					<linearGradient id="SVGID_00000006700305140165797660000012675935627208620977_" gradientUnits="userSpaceOnUse" x1="216.9914" y1="395.9396" x2="216.9914" y2="453.0085">
					<stop  offset="0" style="stop-color:#8AB9FD"/>
					<stop  offset="1" style="stop-color:#0056E9"/>
				</linearGradient>
				<path style="fill:url(#SVGID_00000006700305140165797660000012675935627208620977_);" d="M211.19,400.918
					c0,0,19.066-0.511,29.553,12.255l-16.213,6.894l3.894,14.17c0,0,10.175-1.139,14.872,5.359
					c5.17,7.152-2.617,15.834-2.617,15.834h-24.574l-27.191-36.257c0,0,7.45-10.292,15.397-11.345L211.19,400.918z"/>
				<path style="fill:none;stroke:#000000;stroke-width:0.5;stroke-linecap:round;stroke-linejoin:round;stroke-miterlimit:10;" d="
					M224.092,419.876c0,0,12.021-0.055,11.36,4.511c-0.66,4.566-11.36-3.356-11.36-3.356s8.39,7.069,6.492,8.967
					c-2.248,2.247-7.042-7.042-7.042-7.042s1.265,2.5,1.155,7.577s-3.741,10.853-3.741,10.853"/>
			</g>
			
				<linearGradient id="SVGID_00000093159073432789184080000016681477952972246683_" gradientUnits="userSpaceOnUse" x1="325.123" y1="407.6364" x2="325.123" y2="252.0698">
				<stop  offset="0" style="stop-color:#8AB9FD"/>
				<stop  offset="1" style="stop-color:#0056E9"/>
			</linearGradient>
			<path style="fill:url(#SVGID_00000093159073432789184080000016681477952972246683_);" d="M336.107,232.867
				c0,0,4.801,12.534,8.869,44.711c3.555,28.116,3.622,90.146-2.524,114.274c-0.888,3.485-2.834,5.613-4.273,6.545
				c-0.622,3.112-2.617,12.383-2.617,12.383l-27.574-4.165c0,0-0.574-5.17-0.798-7.816c-9.821-10.393-0.191-46.775,1.425-63.08
				c-5.333-31.822-2.656-100.285-2.656-100.285L336.107,232.867z"/>
			<path d="M318.9,274.633l-4.69,6.8c0,0-0.94,34.63-6.05,51.33c-1.77-12.33-2.52-29.07-2.77-45.19c2.29-5.06,4.13-9.11,4.13-9.11
				L318.9,274.633z"/>
			
				<linearGradient id="SVGID_00000171704332295888562340000012162819978420968074_" gradientUnits="userSpaceOnUse" x1="267.2626" y1="407.2181" x2="267.2626" y2="252.0737">
				<stop  offset="0" style="stop-color:#8AB9FD"/>
				<stop  offset="1" style="stop-color:#0056E9"/>
			</linearGradient>
			<path style="fill:url(#SVGID_00000171704332295888562340000012162819978420968074_);" d="M280.172,236.38
				c0,0-6.522,6.938-8.149,14.208c-2.503,11.179,0,25.142,0,25.142l-4.672,42.589c0,0-23.116,23.986-32.735,38.813
				c-7.527,11.602-4.111,16.88-4.111,16.88l-8.496,11.684l23.936,15.221l6.798-4.497c0,0,5.396-0.104,10.053-3.83
				c4.657-3.725,36.589-44.466,43.22-64.237c7.474-22.284,6.451-94.067,6.451-94.067L280.172,236.38z"/>
			
				<linearGradient id="SVGID_00000099646264902561607710000013501342827185880252_" gradientUnits="userSpaceOnUse" x1="303.3907" y1="240.1949" x2="303.3907" y2="153.8329">
				<stop  offset="0" style="stop-color:#53B0B1"/>
				<stop  offset="1" style="stop-color:#6ACAD8"/>
			</linearGradient>
			<path style="fill:url(#SVGID_00000099646264902561607710000013501342827185880252_);" d="M316.869,162.398
				c0,0,11.652,4.775,14.141,9.562c3.634,6.989-1.674,24.875-0.682,33.059c0.992,8.184,7.192,28.273,6.2,29.265
				c-0.992,0.992-23.561,9.672-56.545,2.232c0,0,1.391-10.993,1.24-17.361c-1.486-9.457-10.086-39.268-11.078-49.436
				c5.043-4.547,27.611-10.776,27.611-10.776L316.869,162.398z"/>
			<g>
				<defs>
					<path id="SVGID_00000051346141064134994920000016410571258783585974_" d="M316.869,162.398c0,0,11.652,4.775,14.141,9.562
						c3.634,6.989-1.674,24.875-0.682,33.059c0.992,8.184,7.192,28.273,6.2,29.265c-0.992,0.992-23.561,9.672-56.545,2.232
						c0,0,1.391-10.993,1.24-17.361c-1.486-9.457-10.086-39.268-11.078-49.436c5.043-4.547,27.611-10.776,27.611-10.776
						L316.869,162.398z"/>
				</defs>
				<clipPath id="SVGID_00000002358527649125221840000009731349588578429596_">
					<use xlink:href="#SVGID_00000051346141064134994920000016410571258783585974_"  style="overflow:visible;"/>
				</clipPath>
				<g style="clip-path:url(#SVGID_00000002358527649125221840000009731349588578429596_);">
					
						<linearGradient id="SVGID_00000142146015664125806730000017746787630375350402_" gradientUnits="userSpaceOnUse" x1="256.2578" y1="164.8434" x2="305.1151" y2="164.8434">
						<stop  offset="0" style="stop-color:#53B0B1"/>
						<stop  offset="1" style="stop-color:#6ACAD8"/>
					</linearGradient>
					
						<path style="fill:none;stroke:url(#SVGID_00000142146015664125806730000017746787630375350402_);stroke-width:2;stroke-miterlimit:10;" d="
						M256.954,172.025c0,0,13.149,12.756,31.917,7.108c21.5-6.47,13.964-30.725,13.964-30.725"/>
					
						<linearGradient id="SVGID_00000022549265298615587000000017628821232203399816_" gradientUnits="userSpaceOnUse" x1="270.9753" y1="219.6562" x2="332.1566" y2="219.6562">
						<stop  offset="0" style="stop-color:#53B0B1"/>
						<stop  offset="1" style="stop-color:#6ACAD8"/>
					</linearGradient>
					
						<path style="fill:none;stroke:url(#SVGID_00000022549265298615587000000017628821232203399816_);stroke-width:2;stroke-miterlimit:10;" d="
						M271.81,211.216c0,0,9.762-14.793,27.135-11.992c17.373,2.801,13.16,28.109,2.437,25.013
						c-11.973-3.457,0.128-21.319,17.234-13.787c17.106,7.532,11.745,30.766,11.745,30.766"/>
					
						<linearGradient id="SVGID_00000121260048215456781560000010895052459017163413_" gradientUnits="userSpaceOnUse" x1="316.6816" y1="176.8358" x2="343.1652" y2="176.8358">
						<stop  offset="0" style="stop-color:#53B0B1"/>
						<stop  offset="1" style="stop-color:#6ACAD8"/>
					</linearGradient>
					
						<path style="fill:none;stroke:url(#SVGID_00000121260048215456781560000010895052459017163413_);stroke-width:2;stroke-miterlimit:10;" d="
						M327.807,160.025c0,0-12.556,8.281-9.704,20.551c3.194,13.741,25.023,12.896,25.023,12.896"/>
				</g>
			</g>
			<path d="M282.65,185.793c0,0-2.25,9.04-5.11,17.09c-1.95-7.84-4.21-16.71-5.73-23.75L282.65,185.793z"/>
			
				<linearGradient id="SVGID_00000021078699687777178500000004202208023438643097_" gradientUnits="userSpaceOnUse" x1="309.5791" y1="100.1831" x2="297.0685" y2="139.5024">
				<stop  offset="0" style="stop-color:#8AB9FD"/>
				<stop  offset="1" style="stop-color:#0056E9"/>
			</linearGradient>
			<path style="fill:url(#SVGID_00000021078699687777178500000004202208023438643097_);" d="M293.691,125.342
				c0,0-2.554,3.925-4.772,9.351c-2.434,5.952-2.952,10.5,2.811,11.134c7.514,0.203,13.833-4.081,13.833-4.081l5.138-14.254"/>
			<path d="M295.896,124.987c0,0-10.185,13.68-7.121,19.122c2.138,3.797,15.788,0.86,19.532-0.894
				c5.043-2.362,7.723-10.915,7.723-10.915"/>
			
				<linearGradient id="SVGID_00000055704745359002441090000000401517246687340424_" gradientUnits="userSpaceOnUse" x1="312.7827" y1="112.0179" x2="313.3633" y2="162.6964">
				<stop  offset="0" style="stop-color:#FFCBCA"/>
				<stop  offset="1" style="stop-color:#E994A8"/>
			</linearGradient>
			<path style="fill:url(#SVGID_00000055704745359002441090000000401517246687340424_);" d="M314.85,151.768
				c0,0,5.17,1.245,8.687-0.74c5.03-2.838,10.177-31.61-0.876-37.252c-11.053-5.642-27.823-0.029-25.79,14.622
				c0.524,3.774,2.878,14.968,2.878,14.968l-1.993,15.578c0,0,5.642,5.527,19.112,3.454L314.85,151.768z"/>
			<path d="M243.05,451.983c-1.15,2.09-2.37,3.45-2.37,3.45h-24.57l-27.2-36.26c0,0,2.413-3.319,5.418-5.92
				c0,0,3.442,5.404,5.232,12.303l18.33,26.426H243.05z"/>
			<path style="fill:none;stroke:#000000;stroke-width:0.5;stroke-linecap:round;stroke-linejoin:round;stroke-miterlimit:10;" d="
				M293.722,272.237c0,0-3.916,43.644-6.383,51.574c-3.574,11.489-46.66,59.585-46.66,59.585"/>
			<path style="fill:none;stroke:#000000;stroke-width:0.5;stroke-linecap:round;stroke-linejoin:round;stroke-miterlimit:10;" d="
				M231.297,375.19c0,0,7.947,10.026,20.777,19.696"/>
			<path style="fill:none;stroke:#000000;stroke-width:0.5;stroke-linecap:round;stroke-linejoin:round;stroke-miterlimit:10;" d="
				M308.02,398.812c0,0,17.809,2.17,28.532,0"/>
			
				<linearGradient id="SVGID_00000008841220344490316790000006606892179967470467_" gradientUnits="userSpaceOnUse" x1="269.7576" y1="269.8892" x2="269.7576" y2="162.5329">
				<stop  offset="0" style="stop-color:#FFCBCA"/>
				<stop  offset="1" style="stop-color:#E994A8"/>
			</linearGradient>
			<path style="fill:url(#SVGID_00000008841220344490316790000006606892179967470467_);" d="M287.56,251.557l-21.348-38.17
				c0,0,12.399-19.422,15.542-25.5c5.266-10.181-2.777-22.309-11.608-18.166c0,0-3.296,2.688-8.881,12.326
				c-6.514,11.241-16.76,32.395-14.936,36c3.003,5.936,32.04,40.021,32.04,40.021c-0.096,4.596,3.112,10.963,3.112,10.963
				l11.92-14.314C291.773,253.376,287.56,251.557,287.56,251.557z"/>
			<polygon points="294.307,252.58 278.922,270.572 281.921,273.484 296.654,254.275 			"/>
			<path d="M307.499,122.789c0,0,11.005-5.186,20.148-1.883c0,0,1.165,3.154,1.443,6.001c0,0,7.966-6.012,6.408-9.4
				c-1.101-2.394-4.069-1.388-4.069-1.388s6.339-8.338,1.484-12.255c-4.628-3.734-11.394,2.202-11.394,2.202
				s-12.543-0.766-20.968,3.16c-8.426,3.925-5.561,16.971-5.561,16.971l3.671,8.019l5.523-1.395l-0.279-2.244
				C303.906,130.576,308.052,129.14,307.499,122.789z"/>
			
				<linearGradient id="SVGID_00000058562637913971327640000017552940835860490405_" gradientUnits="userSpaceOnUse" x1="308.1749" y1="99.7364" x2="295.6643" y2="139.0555">
				<stop  offset="0" style="stop-color:#8AB9FD"/>
				<stop  offset="1" style="stop-color:#0056E9"/>
			</linearGradient>
			<path style="fill:url(#SVGID_00000058562637913971327640000017552940835860490405_);" d="M321.52,106.066
				c0,0-13.248,1.44-27.308,21.335c0,0-13.033-11.282,0.308-24.303C299.535,98.203,312.648,93.763,321.52,106.066z"/>
			
				<linearGradient id="SVGID_00000101067617489956456890000003091599923392645554_" gradientUnits="userSpaceOnUse" x1="298.4085" y1="111.2934" x2="299.0305" y2="165.5842">
				<stop  offset="0" style="stop-color:#FFCBCA"/>
				<stop  offset="1" style="stop-color:#E994A8"/>
			</linearGradient>
			<path style="fill:url(#SVGID_00000101067617489956456890000003091599923392645554_);" d="M302.828,131.184
				c-0.605-1.706-2.821-6.164-7.05-3.954c-4.93,2.577-0.184,13.327,4.516,12.706C304.994,139.314,303.59,133.333,302.828,131.184z"
				/>
			<path d="M310.525,104.999c-0.18,0.097-0.359,0.197-0.536,0.3c-1.906,1.106-2.477,3.596-1.227,5.411l0,0
				c0,0,4.512-3.291,8.234-4.285l0,0C315.463,104.455,312.724,103.818,310.525,104.999z"/>
			<path d="M314.85,151.768c0,0-6.381-1.68-9.835-6.935c0,0,0.995,8.878,10.713,11.556L314.85,151.768z"/>
			
				<linearGradient id="SVGID_00000101809600700026326370000005581168302579580587_" gradientUnits="userSpaceOnUse" x1="347.4471" y1="179.1936" x2="352.9883" y2="179.1936">
				<stop  offset="0" style="stop-color:#FFCBCA"/>
				<stop  offset="1" style="stop-color:#E994A8"/>
			</linearGradient>
			<polygon style="fill:url(#SVGID_00000101809600700026326370000005581168302579580587_);" points="347.447,179.443 
				352.988,182.573 347.707,175.815 			"/>
			<g>
				
					<linearGradient id="SVGID_00000100362200618942558470000000425201507613781377_" gradientUnits="userSpaceOnUse" x1="280.6441" y1="205.5978" x2="352.0627" y2="205.5978">
					<stop  offset="0" style="stop-color:#E4816F"/>
					<stop  offset="1" style="stop-color:#E25E52"/>
				</linearGradient>
				<path style="fill:url(#SVGID_00000100362200618942558470000000425201507613781377_);" d="M280.644,164.484
					c0,0,44.256,20.818,65.082,86.687l6.337-2.04c0,0-15.427-56.936-62.553-89.106L280.644,164.484z"/>
				<polygon points="344.339,250.216 352.608,247.854 354.233,253.28 346.126,255.73 				"/>
				
					<path style="fill:none;stroke:#000000;stroke-width:0.25;stroke-linecap:round;stroke-linejoin:round;stroke-miterlimit:10;stroke-dasharray:2;" d="
					M349.5,287.823c-1-8.18-3.71-23.54-4.57-28.38l12.04-3.79c0,0,2.769,14.728,3.39,20.8
					C361.126,283.95,352.158,286.95,349.5,287.823z"/>
			</g>
			
				<linearGradient id="SVGID_00000061436358392454393070000005131845300000942996_" gradientUnits="userSpaceOnUse" x1="253.6722" y1="197.7679" x2="274.3653" y2="197.7679">
				<stop  offset="0" style="stop-color:#E4816F"/>
				<stop  offset="1" style="stop-color:#E25E52"/>
			</linearGradient>
			<path style="fill:url(#SVGID_00000061436358392454393070000005131845300000942996_);" d="M253.672,196.437
				c0,0,8.135,7.056,16.793,10.221l3.9-6.262c0,0-9.909-6.542-16.866-11.518L253.672,196.437z"/>
		</g>
		<g>
			<g>
				
					<linearGradient id="SVGID_00000018921916511251421360000000174714950904502459_" gradientUnits="userSpaceOnUse" x1="357.1734" y1="117.4883" x2="357.1734" y2="138.4326" gradientTransform="matrix(0.992 -0.1259 0.1259 0.992 -14.1087 45.8996)">
					<stop  offset="0" style="stop-color:#E4816F"/>
					<stop  offset="1" style="stop-color:#E25E52"/>
				</linearGradient>
				<path style="fill:url(#SVGID_00000018921916511251421360000000174714950904502459_);" d="M371.242,115.136
					c-0.214,0.027-0.421,0.078-0.624,0.144l-33.548,7.746c-1.977,0.251-3.235,3.176-2.809,6.533
					c0.426,3.357,2.375,5.875,4.352,5.624l34.419-0.881c0.213,0.013,0.426,0.011,0.64-0.016c3.115-0.395,5.096-5.003,4.424-10.291
					C377.426,118.707,374.357,114.741,371.242,115.136z"/>
				
					<linearGradient id="SVGID_00000048477743798885884910000002061652109716271753_" gradientUnits="userSpaceOnUse" x1="373.3782" y1="116" x2="373.3782" y2="135.8208" gradientTransform="matrix(0.992 -0.1259 0.1259 0.992 -14.1087 45.8996)">
					<stop  offset="0" style="stop-color:#8AB9FD"/>
					<stop  offset="1" style="stop-color:#0056E9"/>
				</linearGradient>
				<path style="fill:url(#SVGID_00000048477743798885884910000002061652109716271753_);" d="M377.097,124.113
					c0.566,4.459-1.144,8.349-3.819,8.688c-2.675,0.34-5.303-3-5.869-7.459c-0.566-4.459,1.144-8.349,3.819-8.688
					C373.904,116.315,376.531,119.654,377.097,124.113z"/>
			</g>
			<g>
				
					<linearGradient id="SVGID_00000176733174665314736970000007765679224203778999_" gradientUnits="userSpaceOnUse" x1="340.9686" y1="117.4884" x2="340.9686" y2="138.4327" gradientTransform="matrix(0.992 -0.1259 0.1259 0.992 -14.1087 45.8996)">
					<stop  offset="0" style="stop-color:#E4816F"/>
					<stop  offset="1" style="stop-color:#E25E52"/>
				</linearGradient>
				<path style="fill:url(#SVGID_00000176733174665314736970000007765679224203778999_);" d="M355.167,117.176
					c-0.214,0.027-0.422,0.078-0.624,0.144l-33.548,7.746c-1.977,0.251-3.235,3.176-2.809,6.533
					c0.426,3.357,2.374,5.876,4.352,5.624l34.419-0.881c0.213,0.013,0.427,0.011,0.641-0.016c3.115-0.395,5.096-5.003,4.424-10.291
					C361.351,120.747,358.281,116.781,355.167,117.176z"/>
				
					<linearGradient id="SVGID_00000032642281023713817320000006158955811561848743_" gradientUnits="userSpaceOnUse" x1="357.1734" y1="116.0001" x2="357.1734" y2="135.8209" gradientTransform="matrix(0.992 -0.1259 0.1259 0.992 -14.1087 45.8996)">
					<stop  offset="0" style="stop-color:#8AB9FD"/>
					<stop  offset="1" style="stop-color:#0056E9"/>
				</linearGradient>
				<path style="fill:url(#SVGID_00000032642281023713817320000006158955811561848743_);" d="M361.022,126.153
					c0.566,4.459-1.144,8.349-3.819,8.688c-2.675,0.34-5.303-3-5.869-7.459c-0.566-4.459,1.144-8.349,3.819-8.688
					C357.828,118.355,360.456,121.695,361.022,126.153z"/>
			</g>
			<path d="M328.72,130.696c0,0,1.864,6.398,1.896,29.584c0.014,10.295-3.135,29.185,10.213,27.958
				c13.883-1.277,17.865-32.46,14.294-51.847l-2.135,0.055c0,0,2.266,10.75,0.926,21.984c-1.34,11.234-2.17,27.734-12.989,28.947
				c-10.283,1.153-7.599-21.281-7.436-26.968c0.221-7.724,0.574-23.745-1.021-30.383L328.72,130.696z"/>
			
				<line style="fill:none;stroke:#000000;stroke-width:0.5;stroke-linecap:round;stroke-linejoin:round;stroke-miterlimit:10;" x1="321.233" y1="126.067" x2="350.658" y2="120.323"/>
		</g>
	</g>
	<g>
		
			<linearGradient id="SVGID_00000150081854114238160030000013812778416503699367_" gradientUnits="userSpaceOnUse" x1="448.5705" y1="171.9128" x2="437.2812" y2="267.5403">
			<stop  offset="0" style="stop-color:#FFCBCA"/>
			<stop  offset="1" style="stop-color:#E994A8"/>
		</linearGradient>
		<path style="fill:url(#SVGID_00000150081854114238160030000013812778416503699367_);" d="M461.748,242.339
			c-3.716,4.956-12.749,14.477-12.749,14.477c-1.651,0.695-24.567-22.775-23.915-23.635c-0.03-2.88-1.539-5.924-2.51-8.769
			c-0.756-2.215-1.266-5.922-2.535-7.494c-0.794-0.984-2.561-1.08-3.29,2.209c-0.335,1.51,0.087,4.201-0.12,5.02
			c-0.208,0.819-1.355-0.781-3.092-2.807c-1.738-2.026-7.314-9.196-8.403-9.904c-1.801-1.17-3.458,1.593-0.63,5.612
			c1.793,2.548,3.958,5.036,5.055,6.577c-2.699-0.275-3.014,2.169-3.076,2.413c-1.096,0.103-1.732,0.561-2.094,0.896
			c-0.403,0.373-0.75,1.301-0.23,2.057c-1.76,1.25-1.097,3.141-0.766,3.727c0.33,0.586,2.516,2.555,4.109,2.287
			c2.521,4.487,3.73,5.518,7.64,6.466c1.315,0.319,9.706,19.915,28.089,34.723c1.5,1.208,4.822,4.273,8.188,3.102
			c8.467-2.946,27.794-21.756,27.794-21.756C473.128,251.808,465.619,245.394,461.748,242.339z"/>
		
			<linearGradient id="SVGID_00000170269314715776704010000011420088224390044076_" gradientUnits="userSpaceOnUse" x1="404.369" y1="230.6532" x2="412.8818" y2="230.6532">
			<stop  offset="0" style="stop-color:#FFCBCA"/>
			<stop  offset="1" style="stop-color:#E994A8"/>
		</linearGradient>
		<path style="fill:url(#SVGID_00000170269314715776704010000011420088224390044076_);" d="M410.512,226.566
			c0.587,0.913,1.705,2.189,1.875,3.371c0.118,0.818-0.575,1.567-1.379,1.376c-0.994-0.236-2.007-1.445-2.686-2.044
			c-0.787-0.811-1.595-1.692-1.828-2.835c0.027,1.198,0.807,2.22,1.546,3.096c0.572,0.66,1.574,1.719,2.547,2.193
			c0.107,0.696,0.199,2.391-1.594,1.725c-2.235-0.829-4.625-4.198-4.625-4.198c0.206,0.563,1.737,2.816,3.448,4.006
			c0.151,0.342,0.38,1.084-0.165,1.616c0,0,0.668-0.158,0.689-1.293c0.415,0.226,0.835,0.38,1.242,0.414
			c1.811,0.155,1.727-1.373,1.599-2.066c0.56,0.112,1.078-0.049,1.456-0.704C413.577,229.595,411.582,227.7,410.512,226.566z"/>
		
			<linearGradient id="SVGID_00000137853546764017683440000007007832332456263090_" gradientUnits="userSpaceOnUse" x1="477.2119" y1="211.1272" x2="473.7651" y2="302.0849">
			<stop  offset="0" style="stop-color:#875FA7"/>
			<stop  offset="1" style="stop-color:#582792"/>
		</linearGradient>
		<path style="fill:url(#SVGID_00000137853546764017683440000007007832332456263090_);" d="M496.169,228.965
			c0,0-15.163-3.952-18.605-3.097c-2.987,0.742-12.299,11.549-21.381,22.136c2.406,2.856,11.371,12.405,16.63,17.362
			L496.169,228.965z"/>
		
			<linearGradient id="XMLID_00000093175644541642006160000012467995970303771583_" gradientUnits="userSpaceOnUse" x1="497.9321" y1="211.9124" x2="494.4852" y2="302.8695">
			<stop  offset="0" style="stop-color:#875FA7"/>
			<stop  offset="1" style="stop-color:#582792"/>
		</linearGradient>
		<path id="XMLID_320_" style="fill:url(#XMLID_00000093175644541642006160000012467995970303771583_);" d="M466.846,309.833
			c26.805,9.842,55.51-2.71,55.51-2.71s-4.465-9.869-4.933-11.527c-0.34-1.169,1.588-32.664,1.588-32.664
			s-6.794-19.115-12.32-23.579c-5.506-4.464-18.642-5.25-18.642-5.25s-15.923,14.7-17.751,19.695
			c-1.849,4.974-1.598,11.628-2.699,25.602C466.138,297.954,466.846,309.833,466.846,309.833z"/>
		<polygon style="fill:#1C1C23;" points="508.297,256.735 512.75,280.75 522.922,280.232 522.357,269.956 		"/>
		<g>
			
				<polygon style="fill:#FFFFFF;stroke:#1C1C23;stroke-width:0.5;stroke-linecap:round;stroke-linejoin:round;stroke-miterlimit:10;" points="
				475.018,232.85 448.464,250 418.898,248.616 395.74,262.025 421.942,315.642 441.441,301.567 468.076,302.036 493.037,285.067 
							"/>
			
				<linearGradient id="SVGID_00000009568618698478252500000005554948657262863274_" gradientUnits="userSpaceOnUse" x1="421.4339" y1="213.2536" x2="458.5829" y2="304.4026">
				<stop  offset="0" style="stop-color:#8AB9FD"/>
				<stop  offset="1" style="stop-color:#0056E9"/>
			</linearGradient>
			<polygon style="opacity:0.3;fill:url(#SVGID_00000009568618698478252500000005554948657262863274_);" points="399.662,263.22 
				420.135,251.523 449.616,253.059 473.43,237.447 489.453,283.876 466.938,299.017 440.236,298.736 423.074,311.125 			"/>
			
				<line style="fill:#FFFFFF;stroke:#1C1C23;stroke-width:0.5;stroke-linecap:round;stroke-linejoin:round;stroke-miterlimit:10;" x1="418.898" y1="248.616" x2="441.441" y2="301.567"/>
			
				<line style="fill:#FFFFFF;stroke:#1C1C23;stroke-width:0.5;stroke-linecap:round;stroke-linejoin:round;stroke-miterlimit:10;" x1="448.464" y1="250" x2="468.076" y2="302.036"/>
		</g>
		
			<linearGradient id="SVGID_00000121268191396824490760000007804698215062220687_" gradientUnits="userSpaceOnUse" x1="512.8829" y1="192.8655" x2="503.1703" y2="275.1369">
			<stop  offset="0" style="stop-color:#FFCBCA"/>
			<stop  offset="1" style="stop-color:#E994A8"/>
		</linearGradient>
		<path style="fill:url(#SVGID_00000121268191396824490760000007804698215062220687_);" d="M536.933,267.257
			c-8.733,2.062-15.828,2.543-21.485,2.387c0,0,2.501,5.831,3.169,8.026c-3.604-1.25-16.632-7.139-24.295-10.682
			c-0.09-1.174,0.011-2.681-5.771-6.606c-3.352-2.275-3.517-5.239-5.266-4.65c-1.434,0.483-1.028,2.892,0.042,4.722
			c0.159,0.272,0.357,0.556,0.565,0.839c-1.966-0.278-5.449-1.323-5.449-1.323s-3.876-1.489-5.957-1.958
			c-1.624-0.366-3.013,0.387-2.88,1.328c-1.631-0.694-2.778-0.989-4.04-0.665c-1.167,0.3-1.519,1.504-0.073,2.589
			c0.574,0.431,2.652,2.036,3.599,2.574c-0.57-0.22-1.132-0.462-1.674-0.539c-2.236-0.316-3.352,1.524-0.863,2.976
			c1.226,0.715,2.259,1.328,3.071,1.869c-0.182-0.048-0.369-0.099-0.536-0.133c-1.64-0.337-3.642,1.085-1.005,2.698
			c2.496,1.527,4.061,2.49,5.529,3.078c6.23,2.495,12.376,4.13,14.69,3.621c12.749,8.916,23.553,14.984,35.919,21.091
			c8.954,4.422,16.415,0.986,17.483-7.196C542.123,288.12,538.579,273.136,536.933,267.257z"/>
		<g>
			
				<linearGradient id="SVGID_00000117649957381421957990000017943761896838052496_" gradientUnits="userSpaceOnUse" x1="469.0861" y1="262.248" x2="481.8561" y2="262.248">
				<stop  offset="0" style="stop-color:#FFCBCA"/>
				<stop  offset="1" style="stop-color:#E994A8"/>
			</linearGradient>
			<path style="fill:url(#SVGID_00000117649957381421957990000017943761896838052496_);" d="M481.856,265.363c0,0-4.3-1.07-6.2-1.89
				c-0.63-0.27-5.575-2.324-6.31-3.33c-0.257-0.352-0.26-0.77-0.26-1.01c0.16,0.06,0.34,0.13,0.52,0.21c0,0,0.043,0.315,0.21,0.51
				c0.511,0.598,3.38,2.05,6.2,3.19C478.426,264.023,481.856,265.363,481.856,265.363z"/>
			
				<linearGradient id="SVGID_00000090986160543109551890000002742443865318571429_" gradientUnits="userSpaceOnUse" x1="467.1761" y1="265.958" x2="480.7661" y2="265.958">
				<stop  offset="0" style="stop-color:#FFCBCA"/>
				<stop  offset="1" style="stop-color:#E994A8"/>
			</linearGradient>
			<path style="fill:url(#SVGID_00000090986160543109551890000002742443865318571429_);" d="M480.766,268.643
				c-0.63-0.1-4.65-0.75-6.24-1.36c-1.05-0.4-4-1.96-5.97-3.12c-0.58-0.35-1.05-0.65-1.38-0.89c0.08,0.01,0.16,0.02,0.24,0.03
				c0.51,0.07,1.04,0.28,1.57,0.48c0.06,0.03,0.1,0.05,0.1,0.05s2.89,1.93,5.68,3.01
				C476.886,267.663,480.166,268.493,480.766,268.643z"/>
			
				<linearGradient id="SVGID_00000138531256049899050110000011597684167218673827_" gradientUnits="userSpaceOnUse" x1="468.0761" y1="269.7817" x2="479.1561" y2="269.7817">
				<stop  offset="0" style="stop-color:#FFCBCA"/>
				<stop  offset="1" style="stop-color:#E994A8"/>
			</linearGradient>
			<path style="fill:url(#SVGID_00000138531256049899050110000011597684167218673827_);" d="M479.156,271.603
				c-0.58-0.08-5.26-0.78-6.92-1.58c-1.41-0.66-3.39-1.63-4.16-2.01c0.33-0.07,0.68-0.07,1.02,0c0.15,0.03,0.34,0.08,0.51,0.12
				c0.01,0.01,0.02,0.01,0.02,0.01s2.39,1.26,4.25,1.9C475.606,270.643,478.706,271.473,479.156,271.603z"/>
		</g>
		
			<linearGradient id="SVGID_00000061462563945567317190000005731981659245281713_" gradientUnits="userSpaceOnUse" x1="521.0884" y1="212.7899" x2="517.6415" y2="303.7472">
			<stop  offset="0" style="stop-color:#875FA7"/>
			<stop  offset="1" style="stop-color:#582792"/>
		</linearGradient>
		<path style="fill:url(#SVGID_00000061462563945567317190000005731981659245281713_);" d="M527.349,237.538
			c-1.384-2.491-19.569-7.145-19.569-7.145l-7.021,10.514l7.016,14.311l6.842,19.896c2.292-0.303,16.659-4.327,23.63-6.783
			C534.251,254.969,528.667,239.909,527.349,237.538z"/>
		<g>
			
				<linearGradient id="SVGID_00000154414624590157819990000001777403978823639680_" gradientUnits="userSpaceOnUse" x1="506.1562" y1="398.1005" x2="506.1562" y2="175.4865" gradientTransform="matrix(1.0069 0.311 -0.2468 0.7991 45.6908 -131.1454)">
				<stop  offset="0" style="stop-color:#E6832C"/>
				<stop  offset="1" style="stop-color:#E9A347"/>
			</linearGradient>
			<path style="fill:url(#SVGID_00000154414624590157819990000001777403978823639680_);" d="M537.58,205.912
				c-5.051,16.353-24.564,24.848-43.583,18.974c-19.019-5.874-30.343-23.893-25.292-40.247
				c5.051-16.353,24.564-24.848,43.583-18.974C531.307,171.54,542.631,189.559,537.58,205.912z"/>
			
				<linearGradient id="SVGID_00000133500239337664182330000004489611463803475629_" gradientUnits="userSpaceOnUse" x1="506.1846" y1="322.3939" x2="506.1846" y2="189.2776" gradientTransform="matrix(1.0069 0.311 -0.2376 0.7693 43.3491 -123.6622)">
				<stop  offset="0" style="stop-color:#E6832C"/>
				<stop  offset="1" style="stop-color:#E9A347"/>
			</linearGradient>
			<path style="opacity:0.5;fill:url(#SVGID_00000133500239337664182330000004489611463803475629_);" d="M523.532,202.298
				c-2.908,9.414-14.485,14.198-25.859,10.685c-11.374-3.513-18.237-13.992-15.33-23.407c2.908-9.414,14.485-14.198,25.859-10.685
				C519.576,182.405,526.44,192.884,523.532,202.298z"/>
			<path d="M523.309,226.323c-20.61,9.12-38.89-1.46-41.12-4.84c2.4-4.18,8.58-12.2,6.68-15.69c-1.91-3.49-6.77-3.89-6.68-12.52
				c0.01-0.64,0.04-1.24,0.09-1.8c1.04-11.46,10.92-6.35,11.92-6.54l20.58,0.75c0.92,0.79,1.99,1.83,3,3.11
				c2.63,3.27,4.95,8.13,3.57,14.39v0.01C518.699,212.603,519.719,221.613,523.309,226.323z"/>
			
				<linearGradient id="SVGID_00000121273558508793482870000016428439327604482749_" gradientUnits="userSpaceOnUse" x1="499.6599" y1="190.9408" x2="489.894" y2="273.664">
				<stop  offset="0" style="stop-color:#FFCBCA"/>
				<stop  offset="1" style="stop-color:#E994A8"/>
			</linearGradient>
			<path style="fill:url(#SVGID_00000121273558508793482870000016428439327604482749_);" d="M507.561,215.25
				c7.079-8.335,6.504-18.156,6.504-18.156c0.068-16.565-22.746-16.498-28.025-5.337c-3.453,7.299-4.705,20.123-2.852,24.932
				c1.812,4.704,5.884,7.292,10.938,6.719l-1.592,4.503c0,0-2.108-0.37-2.631-0.44c-2.731,4.615-3.3,17.516,6.265,17.027
				c9.566-0.489,13.239-13.676,13.239-13.676l-3.353-1.035L507.561,215.25z"/>
			<path d="M517.389,199.253c-2.3,9.74-5.88,10.49-5.88,10.49s-0.32-2.24-1.78-4.31c-2.07-2.96-5.41-6.39-4.6-9.38
				c-0.87,0.54-2.22,1.01-4.38,1.16c-6.14,0.42-13.42-3.48-16.45-0.75c0,0-1.23-0.01-1.64-1.93c0,0-0.34-1.22-0.38-3.06
				c-0.01-0.14-0.01-0.28-0.01-0.43c0-2.94,0.79-7.24,4.59-10.79c5.57-5.2,18.92-4.43,25.51,3.65c0,0,1.03,0.61,2.41,1.78
				c0.92,0.79,1.99,1.83,3,3.11C518.509,191.303,518.449,194.783,517.389,199.253z"/>
			
				<linearGradient id="XMLID_00000175312822819427155580000004704071101519104899_" gradientUnits="userSpaceOnUse" x1="513.6884" y1="192.597" x2="503.9225" y2="275.3202">
				<stop  offset="0" style="stop-color:#FFCBCA"/>
				<stop  offset="1" style="stop-color:#E994A8"/>
			</linearGradient>
			<path id="XMLID_141_" style="fill:url(#XMLID_00000175312822819427155580000004704071101519104899_);" d="M508.949,204.829
				c0,0,4.314-3.083,6.563-0.79c3.149,3.211-3.251,10.862-6.474,9.558C505.184,212.038,508.949,204.829,508.949,204.829z"/>
		</g>
		<path style="fill:#1C1C23;" d="M518.616,277.67c0,0,8.283,2.769,11.881,4.845c0,0-5.645-5.74-12.837-7.402L518.616,277.67z"/>
		<path style="fill:#1C1C23;" d="M494.126,223.408c0,0,4.902-0.938,8.623-4.986c0,0-2.126,5.544-9.711,8.065L494.126,223.408z"/>
		<g>
			
				<linearGradient id="SVGID_00000008840325065168183470000016198603216001851828_" gradientUnits="userSpaceOnUse" x1="426.6018" y1="137.5597" x2="424.9984" y2="184.0566" gradientTransform="matrix(-0.7712 -0.6365 -0.6365 0.7712 842.017 519.5567)">
				<stop  offset="0" style="stop-color:#FFCBCA"/>
				<stop  offset="1" style="stop-color:#E994A8"/>
			</linearGradient>
			<path style="fill:url(#SVGID_00000008840325065168183470000016198603216001851828_);" d="M426.956,370.078l-17.305,15.981
				c0,0-9.69-4.839-11.861-12.137c8.859-12.601,15.233-21.538,15.233-21.538"/>
			<g>
				
					<linearGradient id="SVGID_00000115492380228375292550000009342889655765041853_" gradientUnits="userSpaceOnUse" x1="362.1334" y1="322.6546" x2="407.9601" y2="322.6546" gradientTransform="matrix(-0.9998 0.022 0.022 0.9998 765.0439 49.2784)">
					<stop  offset="0" style="stop-color:#E6832C"/>
					<stop  offset="1" style="stop-color:#E9A347"/>
				</linearGradient>
				<path style="fill:url(#SVGID_00000115492380228375292550000009342889655765041853_);" d="M365.511,370.324l30.316,29.11
					c1.085,1.013,2.766,1.002,3.833-0.032c2.474-2.389,6.487-4.517,8.746-9.149c0.992-2.043,1.377-2.863,1.252-4.202
					c0,0-3.185-1.765-4.184-3.721c-1.03-2.017-0.113-5.063,0.005-5.499c0.111-0.409,4.829-3.618,4.378-6.184
					c-1.999-5.022-9.63-9.721-10.513-10.231c-2.774,4.083-4.821,6.243-6.695,7.071c-4.875-1.783-9.891-4.452-18.398-6.582
					c-3.101-0.768-6.54-0.337-10.049,4.151C363.481,366.396,364.39,369.295,365.511,370.324z"/>
				<path d="M364.201,365.056c0.501-0.569,35.894,33.945,35.894,33.945c0.019,0.211-1.446,3.716-4.617,5.313
					c0,0-25.053-28.627-32.57-35.743C362.091,367.797,363.539,365.837,364.201,365.056z"/>
				<path style="fill:none;stroke:#FFFFFF;stroke-width:0.75;stroke-linecap:round;stroke-miterlimit:10;" d="M393.502,367.895
					c0,0,4.398,3.567,5.145,8.932"/>
				<path style="fill:none;stroke:#FFFFFF;stroke-width:0.75;stroke-linecap:round;stroke-miterlimit:10;" d="M393.435,375.383
					c-1.42-5.256-4.816-8.7-4.816-8.7"/>
				<path style="fill:none;stroke:#FFFFFF;stroke-width:0.75;stroke-linecap:round;stroke-miterlimit:10;" d="M383.079,364.528
					c0,0,3.612,2.084,5.703,9.16"/>
			</g>
		</g>
		
			<linearGradient id="SVGID_00000123428950161656669330000009672060419889351827_" gradientUnits="userSpaceOnUse" x1="469.3227" y1="298.8086" x2="469.3227" y2="346.6116">
			<stop  offset="0" style="stop-color:#E4816F"/>
			<stop  offset="1" style="stop-color:#E25E52"/>
		</linearGradient>
		<path style="fill:url(#SVGID_00000123428950161656669330000009672060419889351827_);" d="M522.357,307.123
			c0,0-3.35,1.255-6.365,2.263c-11.901-5.246-41.388-22.505-52.087-18.511c-13.335,4.979-53.713,64.823-53.713,64.823
			c3.05,6.826,14.283,16.257,21.516,17.358c0,0,32.924-34.152,38.968-43.855c0,0,14.482,11.442,21.749,13.185h31.67
			C524.095,342.386,534.973,326.753,522.357,307.123z"/>
		<path d="M526.359,315.103c-3.97-2.24-10.37-5.72-10.37-5.72c3.02-1,6.37-2.26,6.37-2.26
			C524.129,309.873,525.429,312.543,526.359,315.103z"/>
		<path d="M492.425,342.386h12.591c0,0-21.766-25.181-39.511-16.181c-1.957,0.992-4.467,3.234-6.223,6
			c-4.916,7.74-8.441,19.351-9.417,21.538c4.48-4.88,9.09-9.99,12.9-14.45l-0.017-0.059l14.322-9.304L492.425,342.386z"/>
		<g>
			
				<linearGradient id="SVGID_00000054946196105837610240000014310374365219678344_" gradientUnits="userSpaceOnUse" x1="493.4172" y1="378.633" x2="491.7226" y2="427.778" gradientTransform="matrix(0.9848 -0.1736 0.1736 0.9848 -66.386 98.1868)">
				<stop  offset="0" style="stop-color:#FFCBCA"/>
				<stop  offset="1" style="stop-color:#E994A8"/>
			</linearGradient>
			<path style="fill:url(#SVGID_00000054946196105837610240000014310374365219678344_);" d="M475.57,399.314l7.586,23.715
				c0,0,11.434,0.599,17.233-4.98c-1.58-16.205-2.785-27.745-2.785-27.745"/>
			
				<linearGradient id="SVGID_00000078043177085872864160000017848376388144978091_" gradientUnits="userSpaceOnUse" x1="491.3213" y1="401.4503" x2="491.3213" y2="448.2964" gradientTransform="matrix(0.9848 -0.1736 0.1736 0.9848 -66.386 98.1868)">
				<stop  offset="0" style="stop-color:#E6832C"/>
				<stop  offset="1" style="stop-color:#E9A347"/>
			</linearGradient>
			<path style="fill:url(#SVGID_00000078043177085872864160000017848376388144978091_);" d="M506.02,438.559
				c3.422,3.752,4.38,9.211,4.449,11.752l-30.924,4.906c-0.572-1.986-2.536-7.355,3.77-11.958
				c0.041-0.016-0.597-19.795-0.597-19.795c-2.702-1.561-4.976-4.988-6.901-9.932l19.903-5.401c0.738,4.687,1.874,8.635,4.635,9.569
				c0,0,1.63,0.547,2.212,3.647c0.237,1.259,0.153,5.061,0.153,5.061L506.02,438.559z"/>
			<path d="M511.997,455.217h-32.944c-0.349-0.438-0.761-2.748-0.246-3.946c0,0,8.657,0.192,17.787-0.883
				c10.053-1.183,13.596-2.68,13.596-2.68C510.821,448.691,512.448,451.797,511.997,455.217z"/>
			
				<linearGradient id="SVGID_00000118387849218015997720000013824293336701834672_" gradientUnits="userSpaceOnUse" x1="487.6102" y1="430.9312" x2="487.6102" y2="435.3987" gradientTransform="matrix(0.9848 -0.1736 0.1736 0.9848 -66.386 98.1868)">
				<stop  offset="0" style="stop-color:#E6832C"/>
				<stop  offset="1" style="stop-color:#E9A347"/>
			</linearGradient>
			<path style="fill:url(#SVGID_00000118387849218015997720000013824293336701834672_);" d="M494.745,437.21
				c-8.378,2.738-11.429,6.048-11.429,6.048c0.009-0.001-0.012-0.724-0.077-3.081C489.346,437.216,494.745,437.21,494.745,437.21z"
				/>
			<g>
				<path style="fill:none;stroke:#FFFFFF;stroke-width:0.75;stroke-linecap:round;stroke-miterlimit:10;" d="M485.835,423.143
					c2.946,1.139,9.518-0.097,11.46-2.236"/>
				<path style="fill:none;stroke:#FFFFFF;stroke-width:0.75;stroke-linecap:round;stroke-miterlimit:10;" d="M485.926,428.198
					c4.13,1.292,10.217,0.249,12.606-2.45"/>
				<path style="fill:none;stroke:#FFFFFF;stroke-width:0.75;stroke-linecap:round;stroke-miterlimit:10;" d="M485.637,433.377
					c3.517,1.805,10.871,0.818,14.559-2.566"/>
			</g>
		</g>
		
			<linearGradient id="SVGID_00000031904487083729199390000009202149140519326379_" gradientUnits="userSpaceOnUse" x1="479.2031" y1="328.6148" x2="479.2031" y2="398.5463">
			<stop  offset="0" style="stop-color:#E4816F"/>
			<stop  offset="1" style="stop-color:#E25E52"/>
		</linearGradient>
		<path style="fill:url(#SVGID_00000031904487083729199390000009202149140519326379_);" d="M500.539,401.953
			c-9.12,2.81-22.07,4.34-24.99,4.65c-5.1-16.06-17.84-57.03-17.68-64.98c0.23-11.62,7.03-15.01,11.45-16.23
			c13.61-3.75,23.57,11.57,26.85,29.44C498.609,368.153,499.989,391.113,500.539,401.953z"/>
	</g>
	<g>
		<circle cx="587.865" cy="326.435" r="5.235"/>
		<path d="M218.098,168.887c0,2.186-1.772,3.957-3.957,3.957c-2.185,0-3.957-1.772-3.957-3.957c0-2.186,1.772-3.957,3.957-3.957
			C216.326,164.93,218.098,166.701,218.098,168.887z"/>
		
			<linearGradient id="SVGID_00000065797115339187600160000011741463534117982603_" gradientUnits="userSpaceOnUse" x1="203.8732" y1="110.2866" x2="203.8732" y2="157.3221" gradientTransform="matrix(0.9805 -0.1964 0.1964 0.9805 -24.2902 44.4856)">
			<stop  offset="0" style="stop-color:#E4816F"/>
			<stop  offset="1" style="stop-color:#E25E52"/>
		</linearGradient>
		<path style="fill:url(#SVGID_00000065797115339187600160000011741463534117982603_);" d="M215.462,118.605
			c-1.83-2.575-3.996-4.249-6.21-5.305c-4.301-2.25-9.462-2.841-14.425-1.203c-4.978,1.643-8.774,5.188-10.877,9.552
			c-1.151,2.167-1.895,4.801-1.834,7.959c-0.006,1.947,0.268,3.929,0.913,5.883c0.023,0.071,0.057,0.124,0.075,0.181
			c4.811,15.778,25.931,25.385,27.685,24.806c1.74-0.574,12.997-20.863,7.487-36.411l-0.061-0.185
			C217.57,121.927,216.625,120.167,215.462,118.605z M203.174,137.4c-4.265,1.407-8.855-0.906-10.262-5.17
			c-1.403-4.25,0.91-8.841,5.175-10.248c4.25-1.402,8.841,0.91,10.243,5.161C209.737,131.407,207.425,135.997,203.174,137.4z"/>
		
			<linearGradient id="SVGID_00000164487790277834265450000014114614227498639241_" gradientUnits="userSpaceOnUse" x1="587.4064" y1="245.1732" x2="587.4064" y2="303.4623" gradientTransform="matrix(0.981 -0.1938 0.1938 0.981 -46.6231 129.6883)">
			<stop  offset="0" style="stop-color:#E4816F"/>
			<stop  offset="1" style="stop-color:#E25E52"/>
		</linearGradient>
		<path style="fill:url(#SVGID_00000164487790277834265450000014114614227498639241_);" d="M601.726,267.136
			c-1.679-3.52-3.958-6.015-6.427-7.77c-4.753-3.649-10.904-5.462-17.288-4.524c-6.402,0.941-11.771,4.448-15.255,9.307
			c-1.86,2.391-3.324,5.436-3.919,9.29c-0.42,2.367-0.507,4.835-0.138,7.348c0.014,0.092,0.043,0.162,0.053,0.236
			c2.502,20.209,26.148,36.373,28.405,36.042c2.238-0.329,20.233-22.614,16.832-42.691l-0.035-0.238
			C603.585,271.623,602.81,269.282,601.726,267.136z M582.795,287.385c-5.485,0.806-10.577-2.98-11.383-8.465
			c-0.804-5.466,2.983-10.558,8.468-11.365c5.466-0.803,10.558,2.983,11.362,8.45C592.048,281.49,588.261,286.581,582.795,287.385z"
			/>
		
			<path style="fill:none;stroke:#000000;stroke-width:0.75;stroke-linecap:round;stroke-linejoin:round;stroke-miterlimit:10;stroke-dasharray:7;" d="
			M214.141,168.887c12.83-57.723,127.187-152.316,225-70.766c41.625,34.704,34.879,78.575,3.447,84.452
			c-55.532,10.382-58.926-78.167,21.956-104.888c66.076-21.83,170.237,21.761,176.044,118.253
			c5.116,85.005-52.722,130.497-52.722,130.497"/>
	</g>
	<g>
		<g>
			
				<linearGradient id="SVGID_00000132074144022087569050000016933085915777673367_" gradientUnits="userSpaceOnUse" x1="614.0385" y1="180.7701" x2="610.4676" y2="201.6601">
				<stop  offset="0" style="stop-color:#8AB9FD"/>
				<stop  offset="1" style="stop-color:#0056E9"/>
			</linearGradient>
			<polygon style="fill:url(#SVGID_00000132074144022087569050000016933085915777673367_);" points="602.709,197.715 
				620.384,192.979 607.445,180.04 			"/>
			<polygon points="380.5,445.735 391.115,448.096 387.852,437.723 			"/>
			
				<linearGradient id="SVGID_00000039841435329948525040000011124718482988774787_" gradientUnits="userSpaceOnUse" x1="127.5828" y1="263.3046" x2="115.8381" y2="243.1343">
				<stop  offset="0" style="stop-color:#E6832C"/>
				<stop  offset="1" style="stop-color:#E9A347"/>
			</linearGradient>
			<polygon style="fill:url(#SVGID_00000039841435329948525040000011124718482988774787_);" points="112.982,261.13 
				135.317,253.686 117.703,238.065 			"/>
		</g>
		<g>
			
				<linearGradient id="SVGID_00000046332105442744468360000005939841261020478379_" gradientUnits="userSpaceOnUse" x1="487.7829" y1="89.9192" x2="505.9744" y2="109.6427">
				<stop  offset="0" style="stop-color:#E4816F"/>
				<stop  offset="1" style="stop-color:#E25E52"/>
			</linearGradient>
			<path style="fill:url(#SVGID_00000046332105442744468360000005939841261020478379_);" d="M496.883,86.745
				c-7.2,0-13.04,5.84-13.04,13.05c0,7.2,5.84,13.04,13.04,13.04c7.21,0,13.05-5.84,13.05-13.04
				C509.933,92.585,504.093,86.745,496.883,86.745z M496.883,107.835c-4.44,0-8.04-3.6-8.04-8.04c0-4.45,3.6-8.05,8.04-8.05
				c4.45,0,8.05,3.6,8.05,8.05C504.933,104.235,501.333,107.835,496.883,107.835z"/>
			
				<linearGradient id="SVGID_00000130641954056796624330000001011736728919467931_" gradientUnits="userSpaceOnUse" x1="370.8101" y1="320.1629" x2="379.1816" y2="329.2394">
				<stop  offset="0" style="stop-color:#E4816F"/>
				<stop  offset="1" style="stop-color:#E25E52"/>
			</linearGradient>
			<path style="fill:url(#SVGID_00000130641954056796624330000001011736728919467931_);" d="M381.003,324.706
				c0,3.316-2.688,6.003-6.003,6.003c-3.315,0-6.003-2.688-6.003-6.003c0-3.315,2.688-6.003,6.003-6.003
				C378.315,318.702,381.003,321.39,381.003,324.706z"/>
			
				<linearGradient id="SVGID_00000068653525711491910510000012371949964151189433_" gradientUnits="userSpaceOnUse" x1="126.3808" y1="363.856" x2="136.2611" y2="373.7364">
				<stop  offset="0" style="stop-color:#8AB9FD"/>
				<stop  offset="1" style="stop-color:#0056E9"/>
			</linearGradient>
			<path style="fill:url(#SVGID_00000068653525711491910510000012371949964151189433_);" d="M135.241,368.19
				c0,2.5-2.026,4.526-4.526,4.526c-2.5,0-4.526-2.026-4.526-4.526s2.026-4.526,4.526-4.526
				C133.215,363.665,135.241,365.691,135.241,368.19z"/>
			
				<linearGradient id="SVGID_00000096761268697490911840000014977356105767742379_" gradientUnits="userSpaceOnUse" x1="657.1861" y1="416.2377" x2="641.3679" y2="400.4195">
				<stop  offset="0" style="stop-color:#E6832C"/>
				<stop  offset="1" style="stop-color:#E9A347"/>
			</linearGradient>
			<circle style="fill:url(#SVGID_00000096761268697490911840000014977356105767742379_);" cx="644.952" cy="404.004" r="9.626"/>
			
				<linearGradient id="SVGID_00000140009321089981046270000017472107753613810606_" gradientUnits="userSpaceOnUse" x1="99.1011" y1="379.8288" x2="116.1019" y2="398.2613">
				<stop  offset="0" style="stop-color:#E4816F"/>
				<stop  offset="1" style="stop-color:#E25E52"/>
			</linearGradient>
			<path style="fill:url(#SVGID_00000140009321089981046270000017472107753613810606_);" d="M107.612,376.862
				c-6.74,0-12.19,5.46-12.19,12.19c0,6.74,5.45,12.19,12.19,12.19c6.73,0,12.19-5.45,12.19-12.19
				C119.802,382.322,114.342,376.862,107.612,376.862z M107.612,399.482c-5.76,0-10.43-4.67-10.43-10.43
				c0-5.76,4.67-10.43,10.43-10.43s10.43,4.67,10.43,10.43C118.042,394.812,113.372,399.482,107.612,399.482z"/>
			<path d="M150.766,130.025c0,1.128-0.915,2.043-2.042,2.043c-1.128,0-2.043-0.915-2.043-2.043s0.915-2.042,2.043-2.042
				C149.851,127.982,150.766,128.896,150.766,130.025z"/>
			
				<linearGradient id="SVGID_00000008138446506852844670000005085748909504404365_" gradientUnits="userSpaceOnUse" x1="656.8774" y1="379.0797" x2="663.355" y2="386.1027">
				<stop  offset="0" style="stop-color:#E4816F"/>
				<stop  offset="1" style="stop-color:#E25E52"/>
			</linearGradient>
			<path style="fill:url(#SVGID_00000008138446506852844670000005085748909504404365_);" d="M664.764,382.595
				c0,2.565-2.08,4.645-4.645,4.645c-2.566,0-4.645-2.08-4.645-4.645c0-2.565,2.08-4.645,4.645-4.645
				C662.685,377.95,664.764,380.029,664.764,382.595z"/>
			
				<linearGradient id="SVGID_00000142875833835732287560000004784003904504247434_" gradientUnits="userSpaceOnUse" x1="549.3989" y1="200.7067" x2="594.2074" y2="245.1322">
				<stop  offset="0" style="stop-color:#8AB9FD"/>
				<stop  offset="1" style="stop-color:#0056E9"/>
			</linearGradient>
			<path style="opacity:0.1;fill:url(#SVGID_00000142875833835732287560000004784003904504247434_);" d="M593.803,236.305
				c0,4.694-3.805,8.499-8.498,8.499c-4.693,0-8.498-3.805-8.498-8.499c0-4.693,3.805-8.498,8.498-8.498
				C589.998,227.807,593.803,231.612,593.803,236.305z"/>
			
				<linearGradient id="SVGID_00000063618536057326544500000015271152480903748762_" gradientUnits="userSpaceOnUse" x1="598.919" y1="245.4804" x2="606.2135" y2="252.7749">
				<stop  offset="0" style="stop-color:#8AB9FD"/>
				<stop  offset="1" style="stop-color:#0056E9"/>
			</linearGradient>
			<path style="opacity:0.1;fill:url(#SVGID_00000063618536057326544500000015271152480903748762_);" d="M606.053,250
				c0,1.444-1.171,2.615-2.615,2.615c-1.444,0-2.615-1.171-2.615-2.615s1.171-2.615,2.615-2.615
				C604.883,247.385,606.053,248.556,606.053,250z"/>
			
				<linearGradient id="SVGID_00000013875771700204287030000013780239133890081695_" gradientUnits="userSpaceOnUse" x1="155.6141" y1="134.6151" x2="171.5761" y2="150.5771">
				<stop  offset="0" style="stop-color:#8AB9FD"/>
				<stop  offset="1" style="stop-color:#0056E9"/>
			</linearGradient>
			<path style="opacity:0.1;fill:url(#SVGID_00000013875771700204287030000013780239133890081695_);" d="M175.152,145.835
				c0,4.594-3.724,8.318-8.318,8.318c-4.594,0-8.318-3.724-8.318-8.318c0-4.594,3.724-8.317,8.318-8.317
				C171.427,137.517,175.152,141.241,175.152,145.835z"/>
			<path style="fill:#FFFFFF;" d="M111.069,217.203c0,1.91-1.548,3.458-3.458,3.458c-1.91,0-3.458-1.548-3.458-3.458
				c0-1.91,1.548-3.458,3.458-3.458C109.521,213.745,111.069,215.293,111.069,217.203z"/>
			<circle cx="119.802" cy="287.823" r="4.455"/>
		</g>
	</g>
	<g>
		
			<line style="fill:none;stroke:#000000;stroke-linecap:round;stroke-miterlimit:10;" x1="53.368" y1="455.506" x2="696.632" y2="455.506"/>
		
			<line style="fill:none;stroke:#000000;stroke-linecap:round;stroke-miterlimit:10;" x1="378.63" y1="461.91" x2="576.806" y2="461.91"/>
		
			<line style="fill:none;stroke:#000000;stroke-linecap:round;stroke-miterlimit:10;" x1="282.694" y1="461.91" x2="365.609" y2="461.91"/>
		
			<line style="fill:none;stroke:#000000;stroke-linecap:round;stroke-miterlimit:10;" x1="155.931" y1="461.91" x2="268.963" y2="461.91"/>
	</g>
</g>
</svg>
