<svg width="20" height="20" viewBox="0 0 20 20" fill="none" xmlns="http://www.w3.org/2000/svg">
<g clip-path="url(#clip0_5222_3727)">
<path d="M9.99935 1.66699C14.6018 1.66699 18.3327 5.39783 18.3327 10.0003C18.3327 14.6028 14.6018 18.3337 9.99935 18.3337C5.39685 18.3337 1.66602 14.6028 1.66602 10.0003C1.66602 5.39783 5.39685 1.66699 9.99935 1.66699ZM9.99935 5.00033C9.77833 5.00033 9.56637 5.08812 9.41009 5.2444C9.25381 5.40068 9.16602 5.61264 9.16602 5.83366V10.0003C9.16606 10.2213 9.25389 10.4332 9.41018 10.5895L11.9102 13.0895C12.0674 13.2413 12.2779 13.3253 12.4963 13.3234C12.7148 13.3215 12.9239 13.2338 13.0784 13.0793C13.2329 12.9248 13.3205 12.7158 13.3224 12.4973C13.3243 12.2788 13.2403 12.0683 13.0885 11.9112L10.8327 9.65533V5.83366C10.8327 5.61264 10.7449 5.40068 10.5886 5.2444C10.4323 5.08812 10.2204 5.00033 9.99935 5.00033Z" fill="#747E8F"/>
</g>
<defs>
<clipPath id="clip0_5222_3727">
<rect width="20" height="20" fill="white"/>
</clipPath>
</defs>
</svg>
