<svg width="36" height="37" viewBox="0 0 36 37" fill="none" xmlns="http://www.w3.org/2000/svg">
<path d="M16.5 12.5H19.5V21.5H16.5V12.5ZM22.5 2H13.5V5H22.5V2ZM18 30.5C12.195 30.5 7.5 25.805 7.5 20C7.5 14.195 12.195 9.5 18 9.5C23.805 9.5 28.5 14.195 28.5 20C29.55 20 30.54 20.195 31.5 20.525V20C31.5 16.82 30.39 13.895 28.545 11.585L30.675 9.455C30 8.69 29.325 8 28.56 7.34L26.43 9.5C24.105 7.61 21.18 6.5 18 6.5C14.4196 6.5 10.9858 7.92232 8.45406 10.4541C5.92232 12.9858 4.5 16.4196 4.5 20C4.5 23.5804 5.92232 27.0142 8.45406 29.5459C10.9858 32.0777 14.4196 33.5 18 33.5C18.885 33.5 19.74 33.41 20.565 33.245C20.1 32.375 19.77 31.4 19.62 30.365C19.08 30.44 18.555 30.5 18 30.5ZM32.01 24.26L26.625 29.645L24.24 27.26L22.5 29L26.625 33.5L33.75 26.375L32.01 24.26Z" fill="white"/>
</svg>
