<svg width="12" height="18" viewBox="0 0 12 18" fill="none" xmlns="http://www.w3.org/2000/svg">
<path d="M5.53382 17.6317L0.90332 9.54667V8.46867H1.44232C2.30799 8.46867 3.03482 8.38701 3.62282 8.22367C4.22715 8.06034 4.70082 7.79084 5.04382 7.41517C5.38682 7.03951 5.59099 6.52501 5.65632 5.87167H0.90332V4.30367H5.63182C5.51749 3.69934 5.28882 3.20934 4.94582 2.83367C4.60282 2.44167 4.13732 2.15584 3.54932 1.97617C2.97765 1.79651 2.27532 1.70667 1.44232 1.70667H0.90332V0.138672H11.0463V1.70667H6.41582C6.79149 2.01701 7.10182 2.38451 7.34682 2.80917C7.59182 3.23384 7.74699 3.73201 7.81232 4.30367H11.0463V5.87167H7.86132C7.74699 7.06401 7.28965 7.99501 6.48932 8.66467C5.70532 9.31801 4.65999 9.73451 3.35332 9.91417L8.03282 17.6317H5.53382Z" fill="white"/>
</svg>
