<svg width="22" height="22" viewBox="0 0 22 22" fill="none" xmlns="http://www.w3.org/2000/svg">
<path d="M15.1243 14.8958L17.746 16.445L17.0585 17.5633L13.7493 15.5833V11H15.1243V14.8958ZM21.0827 14.6667C21.0827 18.2142 18.2135 21.0833 14.666 21.0833C12.4843 21.0833 10.5685 19.9925 9.40435 18.3333H3.66602V11H0.916016L10.0827 2.75L16.4993 8.51583C19.1485 9.30417 21.0827 11.7608 21.0827 14.6667ZM19.2493 14.6667C19.2493 12.1367 17.196 10.0833 14.666 10.0833C12.136 10.0833 10.0827 12.1367 10.0827 14.6667C10.0827 17.1967 12.136 19.25 14.666 19.25C17.196 19.25 19.2493 17.1967 19.2493 14.6667Z" fill="#747E8F"/>
</svg>
