<svg width="18" height="19" viewBox="0 0 18 19" fill="none" xmlns="http://www.w3.org/2000/svg">
<path d="M0.338474 12.1907L1.45532 11.1894L3.90727 11.6772L8.00236 8.00564L0.466753 3.34574L1.95588 2.01064L11.3529 5.00165L15.448 1.33011C15.7582 1.05196 16.1193 0.924354 16.5311 0.947286C16.9429 0.970217 17.288 1.13633 17.5662 1.44562C17.8443 1.75586 17.9721 2.11714 17.9496 2.52948C17.9272 2.94182 17.7608 3.28659 17.4506 3.5638L13.3555 7.23534L15.3069 16.9019L13.8178 18.237L10.005 10.2393L5.90993 13.9109L6.12819 16.4013L5.01135 17.4027L3.41947 14.1291L0.338474 12.1907Z" fill="white"/>
</svg>
