<svg width="28" height="28" viewBox="0 0 28 28" fill="none" xmlns="http://www.w3.org/2000/svg">
<path d="M14.0003 0.666504C21.3643 0.666504 27.3337 6.63584 27.3337 13.9998C27.3337 21.3638 21.3643 27.3332 14.0003 27.3332C6.63633 27.3332 0.666992 21.3638 0.666992 13.9998C0.666992 6.63584 6.63633 0.666504 14.0003 0.666504ZM16.667 15.8665L14.5817 17.5345C14.5085 17.5931 14.4484 17.6665 14.4055 17.7498C14.3626 17.8332 14.3378 17.9247 14.3326 18.0183C14.3274 18.1119 14.3421 18.2056 14.3756 18.2931C14.4091 18.3807 14.4607 18.4602 14.527 18.5265L16.179 20.1785C16.4989 20.4988 16.732 20.8952 16.8563 21.3305L17.0897 22.1478C17.1864 22.4908 17.3583 22.8078 17.5928 23.076C17.8274 23.3443 18.1187 23.5569 18.4457 23.6985C19.7211 23.1125 20.8687 22.2811 21.823 21.2518L21.511 18.7492C21.4564 18.3138 21.2952 17.8985 21.0417 17.5404C20.7881 17.1822 20.4501 16.8921 20.0577 16.6958L18.0977 15.7145C17.8696 15.6004 17.6136 15.554 17.3601 15.581C17.1065 15.6079 16.866 15.707 16.667 15.8665ZM14.0003 3.33317C12.3684 3.33178 10.758 3.70547 9.29341 4.42538C7.82884 5.14529 6.54933 6.19217 5.55366 7.48517L5.33366 7.77984V10.0265C5.33349 10.8405 5.58167 11.6352 6.04506 12.3044C6.50845 12.9737 7.16498 13.4856 7.92699 13.7718L8.16433 13.8518L9.88433 14.3785C11.715 14.9385 13.4977 13.4492 13.3203 11.5838L13.295 11.3905L13.0617 9.99184C13.0101 9.68201 13.0696 9.36393 13.2296 9.09366C13.3896 8.82339 13.6399 8.61829 13.9363 8.5145L14.0803 8.4745L14.8963 8.28784C15.3593 8.18201 15.7964 7.98452 16.1818 7.70701C16.5672 7.42951 16.8931 7.07761 17.1403 6.67209C17.3875 6.26656 17.551 5.81564 17.6211 5.34591C17.6911 4.87618 17.6664 4.39718 17.5483 3.93717C16.4085 3.536 15.2087 3.33175 14.0003 3.33317Z" fill="white"/>
</svg>
