<svg width="27" height="27" viewBox="0 0 27 27" fill="none" xmlns="http://www.w3.org/2000/svg">
<path d="M19.0333 20.1667L18.4667 19.6C18.2667 19.4 18.0276 19.3 17.7493 19.3C17.472 19.3 17.2333 19.4 17.0333 19.6C16.8333 19.8 16.7333 20.0333 16.7333 20.3C16.7333 20.5667 16.8333 20.8 17.0333 21L18.3333 22.3C18.5333 22.5 18.7667 22.6 19.0333 22.6C19.3 22.6 19.5333 22.5 19.7333 22.3L22.9667 19.1333C23.1667 18.9333 23.2667 18.6942 23.2667 18.416C23.2667 18.1387 23.1667 17.9 22.9667 17.7C22.7667 17.5 22.528 17.4 22.2507 17.4C21.9724 17.4 21.7333 17.5 21.5333 17.7L19.0333 20.1667ZM18.6667 8C19.0444 8 19.3609 7.872 19.616 7.616C19.872 7.36089 20 7.04444 20 6.66667C20 6.28889 19.872 5.972 19.616 5.716C19.3609 5.46089 19.0444 5.33333 18.6667 5.33333H5.33333C4.95556 5.33333 4.63867 5.46089 4.38267 5.716C4.12756 5.972 4 6.28889 4 6.66667C4 7.04444 4.12756 7.36089 4.38267 7.616C4.63867 7.872 4.95556 8 5.33333 8H18.6667ZM20 26.6667C18.1556 26.6667 16.5836 26.0169 15.284 24.7173C13.9836 23.4169 13.3333 21.8444 13.3333 20C13.3333 18.1556 13.9836 16.5831 15.284 15.2827C16.5836 13.9831 18.1556 13.3333 20 13.3333C21.8444 13.3333 23.4169 13.9831 24.7173 15.2827C26.0169 16.5831 26.6667 18.1556 26.6667 20C26.6667 21.8444 26.0169 23.4169 24.7173 24.7173C23.4169 26.0169 21.8444 26.6667 20 26.6667ZM2.66667 0H21.3333C22.0667 0 22.6947 0.260889 23.2173 0.782667C23.7391 1.30533 24 1.93333 24 2.66667V11.5667C23.3778 11.2556 22.728 11.0276 22.0507 10.8827C21.3724 10.7387 20.6889 10.6667 20 10.6667H5.33333C4.95556 10.6667 4.63867 10.7942 4.38267 11.0493C4.12756 11.3053 4 11.6222 4 12C4 12.3778 4.12756 12.6942 4.38267 12.9493C4.63867 13.2053 4.95556 13.3333 5.33333 13.3333H13.4667C13.0889 13.7111 12.7387 14.1222 12.416 14.5667C12.0942 15.0111 11.8111 15.4889 11.5667 16H5.33333C4.95556 16 4.63867 16.1276 4.38267 16.3827C4.12756 16.6387 4 16.9556 4 17.3333C4 17.7111 4.12756 18.0276 4.38267 18.2827C4.63867 18.5387 4.95556 18.6667 5.33333 18.6667H10.7667C10.7222 18.8889 10.6942 19.1058 10.6827 19.3173C10.672 19.528 10.6667 19.7556 10.6667 20C10.6667 20.9333 10.7947 21.828 11.0507 22.684C11.3058 23.5391 11.6889 24.3556 12.2 25.1333C12.0889 25.1556 11.972 25.1387 11.8493 25.0827C11.7276 25.0276 11.6222 24.9556 11.5333 24.8667L10.4667 23.8C10.3333 23.6667 10.1778 23.6 10 23.6C9.82222 23.6 9.66667 23.6667 9.53333 23.8L8.46667 24.8667C8.33333 25 8.17778 25.0667 8 25.0667C7.82222 25.0667 7.66667 25 7.53333 24.8667L6.46667 23.8C6.33333 23.6667 6.17778 23.6 6 23.6C5.82222 23.6 5.66667 23.6667 5.53333 23.8L4.46667 24.8667C4.33333 25 4.17778 25.0667 4 25.0667C3.82222 25.0667 3.66667 25 3.53333 24.8667L2.46667 23.8C2.33333 23.6667 2.17778 23.6 2 23.6C1.82222 23.6 1.66667 23.6667 1.53333 23.8L0.466667 24.8667L0 25.1667V2.66667C0 1.93333 0.260889 1.30533 0.782667 0.782667C1.30533 0.260889 1.93333 0 2.66667 0Z" fill="white"/>
</svg>
